<svg width="698" height="687" viewBox="0 0 698 687" fill="none" xmlns="http://www.w3.org/2000/svg">
<path fill-rule="evenodd" clip-rule="evenodd" d="M403.669 123.661C463.986 116.269 527.185 123.43 578.571 155.868C631.942 189.56 672.111 243.071 689.113 303.854C705.711 363.192 698.231 428.344 670.125 483.177C644.404 533.356 592.32 560.971 543.162 588.596C499.563 613.097 452.009 620.091 403.669 632.916C333.822 651.448 265.527 704.826 197.556 680.291C126.661 654.699 81.7978 580.431 59.1312 508.547C36.5785 437.025 34.2645 352.975 74.3622 289.602C111.981 230.147 194.54 226.897 257.37 195.236C307.068 170.193 348.431 130.432 403.669 123.661Z" fill="currentColor"/>
<path fill-rule="evenodd" clip-rule="evenodd" d="M315.107 0.931101C367.345 4.14196 413.242 25.6957 461.532 45.8734C527.033 73.2423 610.76 78.517 646.949 139.589C684.368 202.736 675.186 287.779 644.348 354.388C615.079 417.609 542.471 441.872 487.303 484.419C429.905 528.685 387.439 603.612 315.107 608.309C242.056 613.052 179.339 557.876 125.86 507.887C77.5353 462.716 48.7679 403.501 28.6024 340.502C8.5219 277.767 -13.792 209.639 10.8396 148.548C34.9299 88.7998 97.031 55.1518 154.992 27.0316C204.865 2.83544 259.779 -2.4697 315.107 0.931101Z" fill="currentColor"/>
<path d="M671.113 481.053C658.763 495.687 645.404 509.44 631.136 522.21H82.9768C68.7084 509.44 55.3502 495.687 43 481.053H671.113Z" fill="#3F3D56"/>
<path d="M555.774 110.97H161.267C157.877 110.974 154.627 112.322 152.229 114.717C149.831 117.112 148.48 120.361 148.472 123.75V389.968C148.474 393.361 149.823 396.614 152.222 399.013C154.621 401.412 157.874 402.76 161.267 402.763H555.774C559.167 402.76 562.419 401.412 564.818 399.013C567.217 396.614 568.566 393.361 568.569 389.968V123.75C568.561 120.361 567.21 117.112 564.812 114.717C562.413 112.322 559.164 110.974 555.774 110.97Z" fill="#3F3D56"/>
<path d="M532.983 155.974H170.003C169.626 155.966 169.266 155.81 169.003 155.541C168.739 155.271 168.591 154.908 168.591 154.531C168.591 154.153 168.739 153.791 169.003 153.521C169.266 153.251 169.626 153.096 170.003 153.087H532.983C533.36 153.096 533.719 153.251 533.983 153.521C534.247 153.791 534.395 154.153 534.395 154.531C534.395 154.908 534.247 155.271 533.983 155.541C533.719 155.81 533.36 155.966 532.983 155.974Z" fill="#3F3D56"/>
<path d="M194.711 145.717C199.383 145.717 203.171 141.845 203.171 137.069C203.171 132.293 199.383 128.421 194.711 128.421C190.039 128.421 186.252 132.293 186.252 137.069C186.252 141.845 190.039 145.717 194.711 145.717Z" fill="#3F3D56"/>
<path d="M223.935 145.717C228.607 145.717 232.394 141.845 232.394 137.069C232.394 132.293 228.607 128.421 223.935 128.421C219.263 128.421 215.476 132.293 215.476 137.069C215.476 141.845 219.263 145.717 223.935 145.717Z" fill="#3F3D56"/>
<path d="M253.159 145.717C257.831 145.717 261.618 141.845 261.618 137.069C261.618 132.293 257.831 128.421 253.159 128.421C248.487 128.421 244.699 132.293 244.699 137.069C244.699 141.845 248.487 145.717 253.159 145.717Z" fill="#3F3D56"/>
<path d="M515.386 130.56H494.63C494.219 130.57 493.829 130.739 493.542 131.033C493.255 131.326 493.095 131.721 493.095 132.131C493.095 132.541 493.255 132.936 493.542 133.229C493.829 133.523 494.219 133.692 494.63 133.702H515.386C515.798 133.696 516.192 133.528 516.482 133.234C516.772 132.94 516.935 132.544 516.935 132.131C516.935 131.718 516.772 131.322 516.482 131.028C516.192 130.734 515.798 130.566 515.386 130.56Z" fill="#3F3D56"/>
<path d="M515.385 136.46H494.629C494.219 136.469 493.828 136.638 493.541 136.932C493.254 137.225 493.093 137.62 493.093 138.031C493.093 138.441 493.254 138.836 493.541 139.129C493.828 139.423 494.219 139.592 494.629 139.602H515.385C515.799 139.597 516.194 139.429 516.484 139.135C516.775 138.841 516.938 138.444 516.938 138.031C516.938 137.617 516.775 137.221 516.484 136.926C516.194 136.632 515.799 136.465 515.385 136.46Z" fill="#3F3D56"/>
<path d="M515.386 142.36H494.63C494.219 142.369 493.829 142.539 493.542 142.833C493.255 143.126 493.095 143.52 493.095 143.931C493.095 144.341 493.255 144.735 493.542 145.029C493.829 145.322 494.219 145.492 494.63 145.502H515.386C515.798 145.496 516.192 145.328 516.482 145.034C516.772 144.74 516.935 144.344 516.935 143.931C516.935 143.518 516.772 143.122 516.482 142.828C516.192 142.534 515.798 142.366 515.386 142.36Z" fill="#3F3D56"/>
<path d="M201.301 189.52H193.842C191.581 189.52 189.748 191.353 189.748 193.615C189.748 195.876 191.581 197.709 193.842 197.709H201.301C203.562 197.709 205.395 195.876 205.395 193.615C205.395 191.353 203.562 189.52 201.301 189.52Z" fill="#E6E6E6"/>
<path d="M286.6 189.52H279.142C276.881 189.52 275.048 191.353 275.048 193.615C275.048 195.876 276.881 197.709 279.142 197.709H286.6C288.862 197.709 290.695 195.876 290.695 193.615C290.695 191.353 288.862 189.52 286.6 189.52Z" fill="#E6E6E6"/>
<path d="M263.398 188.838H217.045C214.783 188.838 212.95 190.671 212.95 192.932C212.95 195.193 214.783 197.026 217.045 197.026H263.398C265.66 197.026 267.493 195.193 267.493 192.932C267.493 190.671 265.66 188.838 263.398 188.838Z" fill="#E6E6E6"/>
<path d="M224.048 208.002H216.589C214.328 208.002 212.495 209.835 212.495 212.096C212.495 214.357 214.328 216.19 216.589 216.19H224.048C226.309 216.19 228.142 214.357 228.142 212.096C228.142 209.835 226.309 208.002 224.048 208.002Z" fill="#E6E6E6"/>
<path d="M286.145 207.319H239.791C237.529 207.319 235.696 209.152 235.696 211.414C235.696 213.675 237.529 215.508 239.791 215.508H286.145C288.406 215.508 290.239 213.675 290.239 211.414C290.239 209.152 288.406 207.319 286.145 207.319Z" fill="#E6E6E6"/>
<path d="M246.794 226.483H239.336C237.074 226.483 235.241 228.316 235.241 230.577C235.241 232.839 237.074 234.672 239.336 234.672H246.794C249.055 234.672 250.888 232.839 250.888 230.577C250.888 228.316 249.055 226.483 246.794 226.483Z" fill="#E6E6E6"/>
<path d="M308.892 225.801H262.538C260.276 225.801 258.443 227.634 258.443 229.895C258.443 232.156 260.276 233.989 262.538 233.989H308.892C311.153 233.989 312.986 232.156 312.986 229.895C312.986 227.634 311.153 225.801 308.892 225.801Z" fill="#E6E6E6"/>
<path d="M269.54 244.965H262.082C259.82 244.965 257.987 246.798 257.987 249.059C257.987 251.32 259.82 253.153 262.082 253.153H269.54C271.801 253.153 273.634 251.32 273.634 249.059C273.634 246.798 271.801 244.965 269.54 244.965Z" fill="#E6E6E6"/>
<path d="M331.638 244.282H285.284C283.023 244.282 281.189 246.115 281.189 248.376C281.189 250.638 283.023 252.471 285.284 252.471H331.638C333.899 252.471 335.732 250.638 335.732 248.376C335.732 246.115 333.899 244.282 331.638 244.282Z" fill="#E6E6E6"/>
<path d="M286.6 318.455H279.142C276.881 318.455 275.048 320.288 275.048 322.549C275.048 324.81 276.881 326.643 279.142 326.643H286.6C288.862 326.643 290.695 324.81 290.695 322.549C290.695 320.288 288.862 318.455 286.6 318.455Z" fill="#E6E6E6"/>
<path d="M310.768 318.455H303.31C301.049 318.455 299.216 320.288 299.216 322.549C299.216 324.81 301.049 326.643 303.31 326.643H310.768C313.03 326.643 314.863 324.81 314.863 322.549C314.863 320.288 313.03 318.455 310.768 318.455Z" fill="#E6E6E6"/>
<path d="M377.13 319.137H330.776C328.515 319.137 326.682 320.971 326.682 323.232C326.682 325.493 328.515 327.326 330.776 327.326H377.13C379.391 327.326 381.224 325.493 381.224 323.232C381.224 320.971 379.391 319.137 377.13 319.137Z" fill="#E6E6E6"/>
<path d="M201.301 318.455H193.842C191.581 318.455 189.748 320.288 189.748 322.549C189.748 324.81 191.581 326.643 193.842 326.643H201.301C203.562 326.643 205.395 324.81 205.395 322.549C205.395 320.288 203.562 318.455 201.301 318.455Z" fill="#E6E6E6"/>
<path d="M263.398 319.137H217.045C214.783 319.137 212.95 320.971 212.95 323.232C212.95 325.493 214.783 327.326 217.045 327.326H263.398C265.66 327.326 267.493 325.493 267.493 323.232C267.493 320.971 265.66 319.137 263.398 319.137Z" fill="#E6E6E6"/>
<path d="M224.048 299.973H216.589C214.328 299.973 212.495 301.806 212.495 304.068C212.495 306.329 214.328 308.162 216.589 308.162H224.048C226.309 308.162 228.142 306.329 228.142 304.068C228.142 301.806 226.309 299.973 224.048 299.973Z" fill="#E6E6E6"/>
<path d="M309.346 299.973H301.888C299.627 299.973 297.794 301.806 297.794 304.068C297.794 306.329 299.627 308.162 301.888 308.162H309.346C311.608 308.162 313.441 306.329 313.441 304.068C313.441 301.806 311.608 299.973 309.346 299.973Z" fill="#E6E6E6"/>
<path d="M333.514 299.973H326.056C323.795 299.973 321.962 301.806 321.962 304.068C321.962 306.329 323.795 308.162 326.056 308.162H333.514C335.776 308.162 337.609 306.329 337.609 304.068C337.609 301.806 335.776 299.973 333.514 299.973Z" fill="#E6E6E6"/>
<path d="M246.794 281.492H239.336C237.074 281.492 235.241 283.325 235.241 285.586C235.241 287.847 237.074 289.681 239.336 289.681H246.794C249.055 289.681 250.888 287.847 250.888 285.586C250.888 283.325 249.055 281.492 246.794 281.492Z" fill="#E6E6E6"/>
<path d="M269.54 263.01H262.082C259.82 263.01 257.987 264.844 257.987 267.105C257.987 269.366 259.82 271.199 262.082 271.199H269.54C271.801 271.199 273.634 269.366 273.634 267.105C273.634 264.844 271.801 263.01 269.54 263.01Z" fill="#E6E6E6"/>
<path d="M331.638 263.693H285.284C283.023 263.693 281.189 265.526 281.189 267.788C281.189 270.049 283.023 271.882 285.284 271.882H331.638C333.899 271.882 335.732 270.049 335.732 267.788C335.732 265.526 333.899 263.693 331.638 263.693Z" fill="#E6E6E6"/>
<path d="M537.336 585.445C536.469 585.886 535.587 586.326 534.72 586.753C512.258 597.984 494.289 604.367 469.708 611.362C467.633 588.189 465.628 547.459 463.68 522.21C463.169 515.656 462.657 510.155 462.159 506.273C462.034 504.21 461.612 502.175 460.908 500.231L460.993 506.273L461.207 522.21L462.444 613.352C431.867 621.442 400.458 625.969 368.842 626.844C367.193 626.886 365.572 626.915 364.009 626.943C363.454 626.957 362.914 626.971 362.374 626.971C360.597 626.986 358.834 627 357.057 627C323.739 627.025 290.542 623 258.195 615.015C258.892 592.084 259.588 551.809 260.257 522.21C260.399 516.424 260.527 511.036 260.669 506.273C260.939 496.094 261.223 488.759 261.494 486.299C261.254 486.735 261.068 487.198 260.939 487.678C259.622 493.808 258.725 500.021 258.252 506.273C257.755 511.036 257.257 516.424 256.759 522.21C254.115 552.96 251.357 594.771 248.514 612.499C231.59 607.879 214.983 602.166 198.799 595.397C190.269 591.842 181.891 588.009 173.664 583.895C175.228 573.66 176.863 562.187 178.54 550.288C179.848 541.061 181.199 531.579 182.578 522.21C184.71 507.738 186.9 493.55 189.117 481.053C192.359 462.799 195.685 448.128 198.984 441.389C202.111 434.992 205.239 428.68 208.267 422.638C209.319 420.52 210.371 418.43 211.395 416.397C211.636 415.913 211.878 415.444 212.12 414.975C214.295 410.696 216.399 406.602 218.403 402.763C220.124 399.479 221.759 396.38 223.308 393.522C227.061 386.585 230.246 381.055 232.606 377.557C242.472 362.591 257.16 351.45 274.231 345.983L274.658 345.869L274.957 345.997L304.029 337.069L308.28 335.761L311.138 334.879L321.203 327.217L326.676 323.051L331.808 319.142L341.845 311.508L403.985 315.332L416.084 344.461L443.18 354.37L443.649 354.157L444.062 353.986L444.488 354.1C461.557 359.573 476.244 370.713 486.114 385.675C487.45 387.679 489.071 390.324 490.905 393.522C492.469 396.238 494.175 399.337 496.023 402.763C498.653 407.64 501.525 413.141 504.567 419.098C505.235 420.406 505.918 421.742 506.6 423.093C507.865 425.595 509.15 428.149 510.453 430.755C513.481 436.797 516.608 443.11 519.736 449.521C522.451 455.08 525.195 466.51 527.896 481.053C530.128 493.137 532.346 507.382 534.493 522.21C537.308 541.431 534.308 564.447 536.853 582.133C537.009 583.256 537.18 584.35 537.336 585.445Z" fill="#3F3D56"/>
<path d="M357.932 288.256C397.846 288.256 430.203 255.899 430.203 215.984C430.203 176.07 397.846 143.713 357.932 143.713C318.017 143.713 285.66 176.07 285.66 215.984C285.66 255.899 318.017 288.256 357.932 288.256Z" fill="#A0616A"/>
<path d="M477.115 120.21C475.687 116.875 473.786 113.763 471.471 110.97C460.496 97.5635 440.536 91.6637 420.05 107.529C416.107 106.648 411.996 106.884 408.18 108.212C406.378 108.864 404.689 109.795 403.175 110.97C400.073 113.389 397.653 116.574 396.152 120.21C395.35 122.131 394.824 124.156 394.589 126.224C389.524 123.593 384.165 121.574 378.623 120.21C365.026 116.828 350.808 116.828 337.211 120.21C332.854 121.313 328.658 122.976 324.729 125.158C318.075 128.996 314.251 133.844 313.569 139.232C303.973 139.772 293.993 144.819 286.557 153.093C285.719 154.017 284.908 154.984 284.155 155.979C277.902 164.161 274.542 174.186 274.601 184.483V186.289H276.407C281.354 186.284 286.254 187.24 290.837 189.104C293.806 190.296 296.618 191.848 299.21 193.724C300.906 194.927 302.508 196.258 304.001 197.704C307.464 201.057 310.397 204.915 312.702 209.149C318.608 219.846 320.656 232.249 318.502 244.278C318.008 247.062 317.285 249.801 316.341 252.466C314.998 256.27 313.229 259.908 311.067 263.314C310.981 263.441 310.91 263.569 310.825 263.697C309.872 265.219 308.963 266.768 308.11 268.332C307.47 269.498 306.873 270.692 306.318 271.886C304.698 275.21 303.329 278.65 302.224 282.179C300.245 288.42 299.08 294.889 298.755 301.428C298.656 303.162 298.627 304.897 298.684 306.631C298.769 311.102 299.259 315.556 300.148 319.938C300.276 320.535 300.404 321.118 300.532 321.715L301.57 326.25L304.03 337.069L305.736 344.518L307.314 351.427L309.645 348.087C310.441 346.949 312.446 343.452 315.133 338.505C316.91 335.278 318.971 331.425 321.203 327.217C324.316 321.317 327.728 314.735 331.069 308.167C332.42 305.508 333.756 302.864 335.05 300.276C337.495 295.372 339.798 290.638 341.774 286.43C343.594 282.549 345.144 279.108 346.295 276.35C346.651 278.156 346.949 279.99 347.177 281.838C347.432 283.714 347.617 285.619 347.717 287.524C347.745 287.809 347.759 288.107 347.774 288.392L347.831 289.557L347.845 289.899L349.352 290.098C358.043 291.028 366.805 291.095 375.51 290.297H375.524C387.056 289.428 398.369 286.687 409.018 282.179C415.067 279.555 420.714 276.09 425.794 271.886C428.167 269.921 430.382 267.773 432.419 265.46C432.93 264.878 433.428 264.295 433.911 263.698C436.725 260.24 439.134 256.472 441.091 252.467C442.401 249.823 443.513 247.086 444.417 244.278C449.876 227.744 449.564 207.116 443.479 182.607C445.123 182.29 446.697 181.684 448.128 180.815C452.592 178.129 455.691 172.797 456.658 166.286L458.193 166.698C463.636 164.163 468.485 160.511 472.424 155.979C473.204 155.057 473.935 154.093 474.613 153.093C481.565 142.857 481.622 130.574 477.115 120.21Z" fill="#2F2E41"/>
<path d="M560.963 450.616C556.642 510.155 561.12 536.37 537.265 585.459C515.56 596.083 492.951 604.751 469.708 611.362C467.291 612.044 464.869 612.708 462.443 613.352C431.867 621.442 400.458 625.969 368.842 626.844C367.193 626.886 365.572 626.915 364.008 626.943C363.454 626.957 362.913 626.971 362.373 626.971C360.596 626.986 358.833 627 357.056 627C323.739 627.025 290.542 623 258.195 615.015C254.954 614.219 251.726 613.38 248.513 612.499C231.59 607.879 214.983 602.166 198.798 595.397C190.268 591.843 181.89 588.009 173.664 583.895C171.801 582.957 169.939 582.019 168.105 581.052C158.679 564.476 153.32 544.317 153.206 520.092C159.731 478.352 546.548 414.62 560.963 450.616Z" fill="#2F2E41"/>
<path d="M178.065 291.706C178.159 290.417 177.976 289.123 177.528 287.911C177.08 286.698 176.378 285.596 175.468 284.678C174.559 283.76 173.463 283.048 172.255 282.588C171.047 282.129 169.754 281.934 168.465 282.017C167.984 282.035 167.506 282.095 167.036 282.195L110.508 294.965C109.245 295.272 108.06 295.839 107.029 296.631C105.999 297.424 105.146 298.423 104.525 299.565C103.696 299.596 102.872 299.715 102.069 299.922C100.31 300.32 98.6465 301.062 97.1739 302.103C95.7013 303.145 94.4483 304.466 93.4864 305.992C92.5244 307.518 91.8725 309.218 91.5676 310.996C91.2628 312.774 91.3112 314.594 91.7099 316.353C92.1086 318.112 92.85 319.776 93.8915 321.248C94.933 322.721 96.2544 323.974 97.7802 324.936C100.862 326.878 104.589 327.517 108.141 326.712C110.164 326.243 112.055 325.328 113.678 324.033L132.833 377.971C133.79 379.662 135.268 380.997 137.047 381.778C138.826 382.558 140.809 382.742 142.701 382.302L179.449 373.997C181.326 373.558 183.016 372.534 184.275 371.074C185.535 369.614 186.299 367.793 186.459 365.871L178.065 291.706ZM107.293 322.872C104.756 323.445 102.095 322.987 99.8944 321.601C97.6937 320.215 96.1326 318.012 95.5534 315.477C94.9741 312.941 95.4241 310.279 96.8045 308.075C98.1849 305.87 100.383 304.303 102.917 303.717C103.096 303.672 103.275 303.717 103.453 303.672C103.44 305.299 103.855 306.901 104.659 308.316L111.669 320.55C110.448 321.708 108.936 322.511 107.293 322.872Z" fill="#2F2E41"/>
<path d="M168.464 282.017C169 289.161 156.766 297.377 140.379 300.636C125.332 303.717 111.847 301.574 108.052 295.948C108.815 295.495 109.643 295.164 110.508 294.966L167.036 282.196C167.506 282.095 167.984 282.035 168.464 282.017Z" fill="#3F3D56"/>
<path d="M129.37 463.376L161.12 447.5L134.661 376.061L127.688 340.034C126.782 335.353 124.664 330.992 121.544 327.387C118.425 323.782 114.414 321.058 109.912 319.488C105.411 317.919 100.576 317.558 95.8911 318.442C91.2064 319.327 86.8357 321.425 83.2159 324.528C77.8519 329.125 74.4839 335.627 73.8227 342.661C73.1616 349.695 75.259 356.711 79.6724 362.227L105.557 394.583L129.37 463.376Z" fill="#A0616A"/>
<path d="M161.121 434.271L118.787 455.438L150.914 556.103C153.221 563.332 157.357 569.842 162.92 575.002C168.484 580.162 175.286 583.797 182.668 585.555C191.77 587.722 201.325 586.934 209.949 583.305C218.573 579.676 225.817 573.395 230.631 565.372L315.823 419.348C321.86 409.286 323.723 397.262 321.015 385.845C318.307 374.427 311.241 364.522 301.328 358.243C295.996 354.866 290.013 352.65 283.768 351.739C277.524 350.827 271.157 351.241 265.082 352.953C259.008 354.665 253.362 357.636 248.512 361.674C243.662 365.713 239.717 370.727 236.933 376.391L184.935 487.189L161.121 434.271Z" fill="#3F3D56"/>
<path d="M148.027 343.297C147.948 343.297 147.87 343.284 147.796 343.259L138.553 340.076C138.442 340.038 138.341 339.973 138.261 339.886C138.181 339.799 138.124 339.694 138.095 339.579C138.066 339.465 138.066 339.345 138.095 339.231C138.124 339.116 138.181 339.011 138.261 338.924L145.135 331.44C145.198 331.37 145.274 331.314 145.359 331.275C145.444 331.235 145.535 331.212 145.629 331.208C145.722 331.204 145.816 331.218 145.904 331.25C145.991 331.282 146.072 331.331 146.141 331.394C146.21 331.458 146.266 331.534 146.305 331.619C146.345 331.704 146.367 331.795 146.371 331.889C146.374 331.982 146.36 332.076 146.327 332.163C146.295 332.251 146.246 332.332 146.182 332.4L140.042 339.085L148.258 341.915C148.417 341.969 148.552 342.079 148.638 342.223C148.724 342.368 148.756 342.538 148.728 342.704C148.7 342.87 148.615 343.02 148.486 343.129C148.358 343.238 148.195 343.297 148.027 343.297Z" fill="#6C63FF"/>
<path d="M160.696 340.704C160.555 340.704 160.416 340.662 160.299 340.583C160.182 340.504 160.09 340.391 160.037 340.26C159.984 340.129 159.972 339.985 160.001 339.846C160.03 339.707 160.1 339.581 160.202 339.482L166.45 333.442L158.057 329.983C157.971 329.948 157.892 329.896 157.826 329.83C157.76 329.764 157.707 329.686 157.671 329.6C157.635 329.514 157.616 329.421 157.616 329.328C157.616 329.234 157.634 329.142 157.67 329.056C157.705 328.969 157.758 328.891 157.824 328.825C157.89 328.758 157.968 328.706 158.054 328.67C158.141 328.634 158.233 328.616 158.326 328.616C158.42 328.616 158.512 328.634 158.599 328.67L167.995 332.542C168.104 332.587 168.2 332.658 168.275 332.75C168.35 332.841 168.4 332.95 168.422 333.066C168.445 333.181 168.438 333.301 168.402 333.414C168.366 333.526 168.303 333.628 168.218 333.71L161.191 340.504C161.058 340.632 160.881 340.704 160.696 340.704Z" fill="#6C63FF"/>
<path d="M149.968 347.646C149.897 347.646 149.827 347.635 149.759 347.614C149.67 347.587 149.587 347.542 149.515 347.483C149.443 347.423 149.383 347.35 149.339 347.267C149.296 347.185 149.269 347.095 149.26 347.002C149.251 346.909 149.261 346.815 149.288 346.726L155.849 325.401C155.905 325.221 156.03 325.071 156.197 324.983C156.363 324.896 156.558 324.878 156.737 324.933C156.917 324.989 157.068 325.113 157.156 325.279C157.244 325.446 157.263 325.64 157.208 325.82L150.648 347.145C150.603 347.29 150.512 347.417 150.39 347.507C150.268 347.597 150.12 347.646 149.968 347.646Z" fill="#6C63FF"/>
</svg>
